{
    "asset" : {
        "generator" : "Khronos glTF Blender I/O v1.3.48",
        "version" : "2.0"
    },
    "scene" : 0,
    "scenes" : [
        {
            "name" : "Scene",
            "nodes" : [
                0,
                1
            ]
        }
    ],
    "nodes" : [
        {
            "mesh" : 0,
            "name" : "back"
        },
        {
            "mesh" : 1,
            "name" : "front.002"
        }
    ],
    "materials" : [
        {
            "doubleSided" : true,
            "emissiveFactor" : [
                0,
                0,
                0
            ],
            "name" : "Material.001",
            "pbrMetallicRoughness" : {
                "baseColorFactor" : [
                    1,
                    1,
                    1,
                    1
                ],
                "metallicFactor" : 0,
                "roughnessFactor" : 0.5
            }
        }
    ],
    "meshes" : [
        {
            "name" : "Text.001",
            "primitives" : [
                {
                    "attributes" : {
                        "POSITION" : 0,
                        "NORMAL" : 1,
                        "TEXCOORD_0" : 2
                    },
                    "indices" : 3,
                    "material" : 0
                }
            ]
        },
        {
            "name" : "Text.005",
            "primitives" : [
                {
                    "attributes" : {
                        "POSITION" : 4,
                        "NORMAL" : 5,
                        "TEXCOORD_0" : 6
                    },
                    "indices" : 7,
                    "material" : 0
                }
            ]
        }
    ],
    "accessors" : [
        {
            "bufferView" : 0,
            "componentType" : 5126,
            "count" : 27658,
            "max" : [
                2.463073253631592,
                2.455902099609375,
                2.384185791015625e-07
            ],
            "min" : [
                -2.45621657371521,
                -2.510021209716797,
                -2.9445462226867676
            ],
            "type" : "VEC3"
        },
        {
            "bufferView" : 1,
            "componentType" : 5126,
            "count" : 27658,
            "type" : "VEC3"
        },
        {
            "bufferView" : 2,
            "componentType" : 5126,
            "count" : 27658,
            "type" : "VEC2"
        },
        {
            "bufferView" : 3,
            "componentType" : 5123,
            "count" : 27666,
            "type" : "SCALAR"
        },
        {
            "bufferView" : 4,
            "componentType" : 5126,
            "count" : 23643,
            "max" : [
                2.3364930152893066,
                2.602630138397217,
                2.899627685546875
            ],
            "min" : [
                -2.6068830490112305,
                -2.343411922454834,
                -7.152557373046875e-07
            ],
            "type" : "VEC3"
        },
        {
            "bufferView" : 5,
            "componentType" : 5126,
            "count" : 23643,
            "type" : "VEC3"
        },
        {
            "bufferView" : 6,
            "componentType" : 5126,
            "count" : 23643,
            "type" : "VEC2"
        },
        {
            "bufferView" : 7,
            "componentType" : 5123,
            "count" : 23649,
            "type" : "SCALAR"
        }
    ],
    "bufferViews" : [
        {
            "buffer" : 0,
            "byteLength" : 331896,
            "byteOffset" : 0
        },
        {
            "buffer" : 0,
            "byteLength" : 331896,
            "byteOffset" : 331896
        },
        {
            "buffer" : 0,
            "byteLength" : 221264,
            "byteOffset" : 663792
        },
        {
            "buffer" : 0,
            "byteLength" : 55332,
            "byteOffset" : 885056
        },
        {
            "buffer" : 0,
            "byteLength" : 283716,
            "byteOffset" : 940388
        },
        {
            "buffer" : 0,
            "byteLength" : 283716,
            "byteOffset" : 1224104
        },
        {
            "buffer" : 0,
            "byteLength" : 189144,
            "byteOffset" : 1507820
        },
        {
            "buffer" : 0,
            "byteLength" : 47298,
            "byteOffset" : 1696964
        }
    ],
    "buffers" : [
        {
            "byteLength" : 1744264,
            "uri" : "circle-text-3.bin"
        }
    ]
}
